<?xml version="1.0" encoding="UTF-8" standalone="no"?>
<!-- Created with Inkscape (http://www.inkscape.org/) -->

<svg
   width="106.73275mm"
   height="111.17689mm"
   viewBox="0 0 106.73275 111.17689"
   version="1.1"
   id="svg1"
   xml:space="preserve"
   xmlns:xlink="http://www.w3.org/1999/xlink"
   xmlns="http://www.w3.org/2000/svg"
   xmlns:svg="http://www.w3.org/2000/svg"><defs
     id="defs1"><linearGradient
       id="linearGradient3"><stop
         style="stop-color:#cb92e3;stop-opacity:1;"
         offset="0"
         id="stop3" /><stop
         style="stop-color:#cb92e3;stop-opacity:0;"
         offset="1"
         id="stop4" /></linearGradient><linearGradient
       xlink:href="#linearGradient3"
       id="linearGradient4"
       x1="67.765236"
       y1="172.66743"
       x2="74.432144"
       y2="269.75598"
       gradientUnits="userSpaceOnUse"
       gradientTransform="translate(-3.231969,-1.0207444)" /></defs><g
     id="layer1"
     transform="translate(-14.525957,-165.05964)"><path
       style="fill:url(#linearGradient4);fill-opacity:1;stroke:none"
       d="m 14.525957,269.35735 9.789582,6.87917 c 12.248483,-12.47197 18.134027,-31.57723 30.956248,-43.39167 2.294239,6.19337 5.28757,12.51063 8.1337,18.52083 2.22373,4.59583 4.35803,9.18906 7.13068,13.49375 1.49179,2.31611 3.09362,4.58703 5.132221,6.46127 1.270447,1.16801 2.641297,2.19762 4.209657,2.9343 9.64956,4.53254 16.72092,-4.41213 21.113575,-11.77682 4.59308,-7.70071 7.75567,-16.41372 10.63723,-24.87083 4.45804,-13.08392 7.71127,-26.23414 9.33514,-39.95208 0.82316,-6.95389 -0.11778,-14.27825 -2.32613,-20.90209 -0.79908,-2.39679 -1.64546,-5.48826 -3.362,-7.3969 -3.15416,-3.50713 -9.35594,-1.77616 -10.17544,2.89898 -0.56561,3.22678 1.73882,6.52545 2.63277,9.52501 1.36019,4.56397 1.56882,9.0305 1.51258,13.75833 -0.0642,5.39776 -1.37354,10.89218 -2.53253,16.13958 -2.30461,10.4342 -5.56397,20.77309 -9.531539,30.69167 -2.254696,5.63656 -4.664046,11.28474 -7.961786,16.40417 -0.75015,1.16452 -2.61827,4.65522 -4.31499,4.31458 -1.51459,-0.30407 -2.88988,-2.60533 -3.69641,-3.78542 -2.85321,-4.17469 -4.70017,-8.9894 -6.952058,-13.49375 -3.03625,-6.07328 -5.94606,-12.28129 -8.62611,-18.52083 -0.76625,-1.78396 -2.94016,-4.91141 -2.63358,-6.87917 0.19861,-1.2748 1.35889,-2.61607 2.01173,-3.70416 1.40942,-2.34909 2.73032,-4.74799 4.05837,-7.14375 5.25581,-9.48131 12.452008,-23.71483 7.553488,-34.66042 -6.373818,-14.24215 -26.409868,-12.19234 -32.918779,0.79375 -4.74029,9.45746 -1.97352,21.40581 1.07793,30.95625 0.9652,3.02087 1.98958,6.0248 3.09722,8.99583 0.42269,1.13379 1.391521,2.73225 1.09631,3.96875 -0.36533,1.5302 -1.83726,3.19248 -2.6979,4.49792 -6.950118,10.54211 -14.310744,20.86132 -23.999497,34.39583 -2.5554,3.56971 -5.57732,7.03514 -7.749682,10.84792 m 42.8625,-63.23542 c -1.33512,-1.52838 -1.72854,-4.40582 -2.26897,-6.35 -1.65904,-5.9684 -4.63206,-17.06054 1.47624,-21.48719 3.22514,-2.33723 8.87162,-2.12761 9.47498,2.70178 0.62476,5.0006 -1.3727,10.06841 -3.35363,14.55208 -1.59662,3.61382 -3.33482,7.17056 -5.32862,10.58333 z"
       id="path1" /></g></svg>
